# xmcd
#
# Track frame offsets:
#	150
#	15844
#	32353
#	45999
#	57095
#	71737
#	93178
#	105242
#	135084
#	146800
#	159143
#	173130
#	187897
#	197307
#	212687
#	224194
#	235374
#	246993
#	264470
#	294395
#	308521
#	323253
#
# Disc length: 4551 seconds
#
# Revision: 0
# Processed by: cddbd v1.5.1PL2 Copyright (c) Steve Scherf et al.
# Submitted via: SynApp - FreeCDDB Version: 2.0
#
DISCID=1811c516
DTITLE=Glenn Miller - The Best of Glenn Miller 2
DYEAR=1900
DGENRE=A Cappella
TTITLE0=Glenn Miller - Rhapsody in Blue
TTITLE1=Blue Skies
TTITLE2=April in Paris
TTITLE3=Summertime
TTITLE4=Pennsylvania 6 500
TTITLE5=Stromy Weather
TTITLE6=Caribbean Clipper
TTITLE7=Hooked On Swing
TTITLE8=Jumpin`jive
TTITLE9=Kalalzoo
TTITLE10=Missourie Waltz
TTITLE11=My blue Haven
TTITLE12=Over There
TTITLE13=Perfidia
TTITLE14=Auld Lang Syne
TTITLE15=Stomping At The Savoy
TTITLE16=Arabian Dance
TTITLE17=Begin The Begin
TTITLE18=Basin The Beguine
TTITLE19=Basis Street Blues
TTITLE20=Elmers Tune
TTITLE21=Blue Evening
EXTD=
EXTT0=
EXTT1=
EXTT2=
EXTT3=
EXTT4=
EXTT5=
EXTT6=
EXTT7=
EXTT8=
EXTT9=
EXTT10=
EXTT11=
EXTT12=
EXTT13=
EXTT14=
EXTT15=
EXTT16=
EXTT17=
EXTT18=
EXTT19=
EXTT20=
EXTT21=
PLAYORDER=
